<svg width="30" height="30" viewBox="0 0 30 30" fill="none" xmlns="http://www.w3.org/2000/svg">
<g filter="url(#filter0_d_8028_637)">
<path d="M14.2827 3.45356C14.5131 2.98662 14.6284 2.75315 14.7848 2.67856C14.9209 2.61366 15.0791 2.61366 15.2152 2.67856C15.3717 2.75315 15.4869 2.98662 15.7174 3.45356L17.9041 7.88353C17.9721 8.02138 18.0061 8.0903 18.0558 8.14382C18.0999 8.1912 18.1527 8.22959 18.2113 8.25687C18.2776 8.28767 18.3536 8.29878 18.5057 8.32102L23.397 9.03595C23.9121 9.11124 24.1696 9.14888 24.2888 9.27468C24.3925 9.38414 24.4412 9.53454 24.4215 9.68402C24.3988 9.85582 24.2124 10.0374 23.8395 10.4006L20.3014 13.8467C20.1912 13.9541 20.136 14.0078 20.1004 14.0717C20.0689 14.1283 20.0487 14.1905 20.0409 14.2548C20.0321 14.3274 20.0451 14.4032 20.0711 14.555L20.906 19.4224C20.994 19.9357 21.038 20.1924 20.9553 20.3447C20.8833 20.4773 20.7554 20.5702 20.6071 20.5977C20.4366 20.6293 20.2061 20.5081 19.7451 20.2657L15.3724 17.9661C15.2361 17.8944 15.168 17.8586 15.0962 17.8445C15.0327 17.8321 14.9673 17.8321 14.9038 17.8445C14.832 17.8586 14.7639 17.8944 14.6277 17.9661L10.2549 20.2657C9.79392 20.5081 9.56341 20.6293 9.39297 20.5977C9.24468 20.5702 9.11672 20.4773 9.04474 20.3447C8.962 20.1924 9.00603 19.9357 9.09407 19.4224L9.92889 14.555C9.95491 14.4032 9.96793 14.3274 9.95912 14.2548C9.95132 14.1905 9.93111 14.1283 9.89961 14.0717C9.86402 14.0078 9.80888 13.9541 9.69859 13.8467L6.16056 10.4006C5.78766 10.0374 5.60121 9.85582 5.57853 9.68402C5.55879 9.53454 5.60755 9.38414 5.71125 9.27468C5.83044 9.14888 6.08797 9.11124 6.60304 9.03595L11.4943 8.32102C11.6464 8.29878 11.7225 8.28767 11.7887 8.25687C11.8474 8.22959 11.9002 8.1912 11.9442 8.14382C11.9939 8.0903 12.0279 8.02138 12.096 7.88353L14.2827 3.45356Z" stroke="black" stroke-width="2" stroke-linecap="round" stroke-linejoin="round"/>
</g>
<defs>
<filter id="filter0_d_8028_637" x="-1" y="0" width="32" height="32" filterUnits="userSpaceOnUse" color-interpolation-filters="sRGB">
<feFlood flood-opacity="0" result="BackgroundImageFix"/>
<feColorMatrix in="SourceAlpha" type="matrix" values="0 0 0 0 0 0 0 0 0 0 0 0 0 0 0 0 0 0 127 0" result="hardAlpha"/>
<feOffset dy="4"/>
<feGaussianBlur stdDeviation="2"/>
<feComposite in2="hardAlpha" operator="out"/>
<feColorMatrix type="matrix" values="0 0 0 0 0 0 0 0 0 0 0 0 0 0 0 0 0 0 0.25 0"/>
<feBlend mode="normal" in2="BackgroundImageFix" result="effect1_dropShadow_8028_637"/>
<feBlend mode="normal" in="SourceGraphic" in2="effect1_dropShadow_8028_637" result="shape"/>
</filter>
</defs>
</svg>
