<svg width="32" height="32" viewBox="0 0 32 32" fill="none" xmlns="http://www.w3.org/2000/svg">
<path d="M18.6666 3.02539V8.53278C18.6666 9.27951 18.6666 9.65288 18.8119 9.9381C18.9397 10.189 19.1437 10.393 19.3946 10.5208C19.6798 10.6661 20.0532 10.6661 20.7999 10.6661H26.3073M18.6666 22.666H10.6666M21.3333 17.3327H10.6666M26.6666 13.317V22.9327C26.6666 25.1729 26.6666 26.293 26.2306 27.1486C25.8471 27.9013 25.2352 28.5132 24.4825 28.8967C23.6269 29.3327 22.5068 29.3327 20.2666 29.3327H11.7333C9.49304 29.3327 8.37294 29.3327 7.51729 28.8967C6.76464 28.5132 6.15272 27.9013 5.76923 27.1486C5.33325 26.293 5.33325 25.1729 5.33325 22.9327V9.06602C5.33325 6.82581 5.33325 5.7057 5.76923 4.85005C6.15272 4.09741 6.76464 3.48548 7.51729 3.10199C8.37294 2.66602 9.49304 2.66602 11.7333 2.66602H16.0156C16.994 2.66602 17.4832 2.66602 17.9435 2.77654C18.3517 2.87452 18.7418 3.03614 19.0997 3.25545C19.5034 3.50282 19.8493 3.84873 20.5411 4.54053L24.7921 8.7915C25.4839 9.48331 25.8298 9.82921 26.0771 10.2329C26.2965 10.5908 26.4581 10.9809 26.5561 11.3891C26.6666 11.8494 26.6666 12.3386 26.6666 13.317Z" stroke="black" stroke-width="2.66667" stroke-linecap="round" stroke-linejoin="round"/>
</svg>
