<svg width="24" height="25" viewBox="0 0 24 25" fill="none" xmlns="http://www.w3.org/2000/svg">
<path d="M4 13.5H19.587C20.0495 13.5 20.2808 13.5 20.4128 13.403C20.528 13.3185 20.6015 13.1887 20.6147 13.0464C20.63 12.8833 20.511 12.685 20.273 12.2884L18.247 8.9116C18.1572 8.76195 18.1123 8.68712 18.0947 8.60724C18.0792 8.53659 18.0792 8.46341 18.0947 8.39276C18.1123 8.31288 18.1572 8.23805 18.247 8.0884L20.273 4.7116C20.511 4.31503 20.63 4.11674 20.6147 3.95359C20.6015 3.81133 20.528 3.68154 20.4128 3.59698C20.2808 3.5 20.0495 3.5 19.587 3.5H4L4 21.5" stroke="#6F6F6F" stroke-width="2" stroke-linecap="round" stroke-linejoin="round"/>
</svg>
