<svg width="40" height="41" viewBox="0 0 40 41" fill="none" xmlns="http://www.w3.org/2000/svg">
<path d="M7.12007 35.0465L18.1143 24.0523C18.7743 23.3923 19.1043 23.0622 19.4849 22.9386C19.8196 22.8298 20.1802 22.8298 20.5149 22.9386C20.8955 23.0622 21.2255 23.3923 21.8855 24.0523L32.8065 34.9732M23.3333 25.5L28.1143 20.719C28.7743 20.0589 29.1043 19.7289 29.4849 19.6053C29.8196 19.4965 30.1802 19.4965 30.5149 19.6053C30.8955 19.7289 31.2255 20.0589 31.8855 20.719L36.6666 25.5M16.6666 15.5C16.6666 17.341 15.1742 18.8333 13.3333 18.8333C11.4923 18.8333 9.99992 17.341 9.99992 15.5C9.99992 13.6591 11.4923 12.1667 13.3333 12.1667C15.1742 12.1667 16.6666 13.6591 16.6666 15.5ZM11.3333 35.5H28.6666C31.4668 35.5 32.867 35.5 33.9365 34.955C34.8773 34.4757 35.6423 33.7108 36.1216 32.77C36.6666 31.7004 36.6666 30.3003 36.6666 27.5V13.5C36.6666 10.6997 36.6666 9.29961 36.1216 8.23005C35.6423 7.28924 34.8773 6.52433 33.9365 6.04497C32.867 5.5 31.4668 5.5 28.6666 5.5H11.3333C8.53299 5.5 7.13286 5.5 6.0633 6.04497C5.12249 6.52433 4.35759 7.28924 3.87822 8.23005C3.33325 9.29961 3.33325 10.6997 3.33325 13.5V27.5C3.33325 30.3003 3.33325 31.7004 3.87822 32.77C4.35759 33.7108 5.12249 34.4757 6.0633 34.955C7.13286 35.5 8.53299 35.5 11.3333 35.5Z" stroke="black" stroke-width="2" stroke-linecap="round" stroke-linejoin="round"/>
</svg>
