<svg width="18" height="18" viewBox="0 0 18 18" fill="none" xmlns="http://www.w3.org/2000/svg">
<g clip-path="url(#clip0_6112_101092)">
<path d="M3.20404 15.5459L8.15144 10.5985C8.44845 10.3015 8.59696 10.153 8.76821 10.0974C8.91884 10.0484 9.0811 10.0484 9.23173 10.0974C9.40298 10.153 9.55149 10.3015 9.8485 10.5985L14.7629 15.5129M10.5 11.25L12.6514 9.09853C12.9485 8.80152 13.097 8.65301 13.2682 8.59737C13.4188 8.54842 13.5811 8.54842 13.7317 8.59737C13.903 8.65301 14.0515 8.80152 14.3485 9.09853L16.5 11.25M7.49997 6.75C7.49997 7.57843 6.8284 8.25 5.99997 8.25C5.17154 8.25 4.49997 7.57843 4.49997 6.75C4.49997 5.92157 5.17154 5.25 5.99997 5.25C6.8284 5.25 7.49997 5.92157 7.49997 6.75ZM5.09997 15.75H12.9C14.1601 15.75 14.7901 15.75 15.2714 15.5048C15.6948 15.289 16.039 14.9448 16.2547 14.5215C16.5 14.0402 16.5 13.4101 16.5 12.15V5.85C16.5 4.58988 16.5 3.95982 16.2547 3.47852C16.039 3.05516 15.6948 2.71095 15.2714 2.49524C14.7901 2.25 14.1601 2.25 12.9 2.25H5.09997C3.83985 2.25 3.20979 2.25 2.72849 2.49524C2.30513 2.71095 1.96092 3.05516 1.7452 3.47852C1.49997 3.95982 1.49997 4.58988 1.49997 5.85V12.15C1.49997 13.4101 1.49997 14.0402 1.7452 14.5215C1.96092 14.9448 2.30513 15.289 2.72849 15.5048C3.20979 15.75 3.83985 15.75 5.09997 15.75Z" stroke="#666D80" stroke-width="1.5" stroke-linecap="round" stroke-linejoin="round"/>
</g>
<defs>
<clipPath id="clip0_6112_101092">
<rect width="18" height="18" fill="white"/>
</clipPath>
</defs>
</svg>
