<svg width="32" height="32" viewBox="0 0 32 32" fill="none" xmlns="http://www.w3.org/2000/svg">
<g filter="url(#filter0_d_8247_1098)">
<path d="M21 11V8C21 5.23858 18.7614 3 16 3C13.2386 3 11 5.23858 11 8V11M12.8 21H19.2C20.8802 21 21.7202 21 22.362 20.673C22.9265 20.3854 23.3854 19.9265 23.673 19.362C24 18.7202 24 17.8802 24 16.2V15.8C24 14.1198 24 13.2798 23.673 12.638C23.3854 12.0735 22.9265 11.6146 22.362 11.327C21.7202 11 20.8802 11 19.2 11H12.8C11.1198 11 10.2798 11 9.63803 11.327C9.07354 11.6146 8.6146 12.0735 8.32698 12.638C8 13.2798 8 14.1198 8 15.8V16.2C8 17.8802 8 18.7202 8.32698 19.362C8.6146 19.9265 9.07354 20.3854 9.63803 20.673C10.2798 21 11.1198 21 12.8 21Z" stroke="#818898" stroke-width="2" stroke-linecap="round" stroke-linejoin="round"/>
</g>
<defs>
<filter id="filter0_d_8247_1098" x="0" y="0" width="32" height="32" filterUnits="userSpaceOnUse" color-interpolation-filters="sRGB">
<feFlood flood-opacity="0" result="BackgroundImageFix"/>
<feColorMatrix in="SourceAlpha" type="matrix" values="0 0 0 0 0 0 0 0 0 0 0 0 0 0 0 0 0 0 127 0" result="hardAlpha"/>
<feOffset dy="4"/>
<feGaussianBlur stdDeviation="2"/>
<feComposite in2="hardAlpha" operator="out"/>
<feColorMatrix type="matrix" values="0 0 0 0 0 0 0 0 0 0 0 0 0 0 0 0 0 0 0.25 0"/>
<feBlend mode="normal" in2="BackgroundImageFix" result="effect1_dropShadow_8247_1098"/>
<feBlend mode="normal" in="SourceGraphic" in2="effect1_dropShadow_8247_1098" result="shape"/>
</filter>
</defs>
</svg>
