<svg width="122" height="27" viewBox="0 0 122 27" fill="none" xmlns="http://www.w3.org/2000/svg">
<path d="M13.5001 3.5L4.59356 14.1879C4.24475 14.6064 4.07035 14.8157 4.06768 14.9925C4.06537 15.1461 4.13384 15.2923 4.25336 15.3889C4.39085 15.5 4.66328 15.5 5.20814 15.5H12.5001L11.5001 23.5L20.4067 12.8121C20.7555 12.3936 20.9299 12.1843 20.9325 12.0075C20.9348 11.8539 20.8664 11.7077 20.7468 11.6111C20.6094 11.5 20.3369 11.5 19.7921 11.5H12.5001L13.5001 3.5Z" stroke="#1678F2" stroke-width="2" stroke-linecap="round" stroke-linejoin="round"/>
<path d="M39.49 21V8.57H34.7V6.6H46.37V8.57H41.58V21H39.49ZM48.6141 21.3C47.8141 21.3 47.1441 21.1533 46.6041 20.86C46.0641 20.56 45.6541 20.1667 45.3741 19.68C45.1007 19.1867 44.9641 18.6467 44.9641 18.06C44.9641 17.5133 45.0607 17.0333 45.2541 16.62C45.4474 16.2067 45.7341 15.8567 46.1141 15.57C46.4941 15.2767 46.9607 15.04 47.5141 14.86C47.9941 14.72 48.5374 14.5967 49.1441 14.49C49.7507 14.3833 50.3874 14.2833 51.0541 14.19C51.7274 14.0967 52.3941 14.0033 53.0541 13.91L52.2941 14.33C52.3074 13.4833 52.1274 12.8567 51.7541 12.45C51.3874 12.0367 50.7541 11.83 49.8541 11.83C49.2874 11.83 48.7674 11.9633 48.2941 12.23C47.8207 12.49 47.4907 12.9233 47.3041 13.53L45.3541 12.93C45.6207 12.0033 46.1274 11.2667 46.8741 10.72C47.6274 10.1733 48.6274 9.9 49.8741 9.9C50.8407 9.9 51.6807 10.0667 52.3941 10.4C53.1141 10.7267 53.6407 11.2467 53.9741 11.96C54.1474 12.3133 54.2541 12.6867 54.2941 13.08C54.3341 13.4733 54.3541 13.8967 54.3541 14.35V21H52.5041V18.53L52.8641 18.85C52.4174 19.6767 51.8474 20.2933 51.1541 20.7C50.4674 21.1 49.6207 21.3 48.6141 21.3ZM48.9841 19.59C49.5774 19.59 50.0874 19.4867 50.5141 19.28C50.9407 19.0667 51.2841 18.7967 51.5441 18.47C51.8041 18.1433 51.9741 17.8033 52.0541 17.45C52.1674 17.13 52.2307 16.77 52.2441 16.37C52.2641 15.97 52.2741 15.65 52.2741 15.41L52.9541 15.66C52.2941 15.76 51.6941 15.85 51.1541 15.93C50.6141 16.01 50.1241 16.09 49.6841 16.17C49.2507 16.2433 48.8641 16.3333 48.5241 16.44C48.2374 16.54 47.9807 16.66 47.7541 16.8C47.5341 16.94 47.3574 17.11 47.2241 17.31C47.0974 17.51 47.0341 17.7533 47.0341 18.04C47.0341 18.32 47.1041 18.58 47.2441 18.82C47.3841 19.0533 47.5974 19.24 47.8841 19.38C48.1707 19.52 48.5374 19.59 48.9841 19.59ZM60.0808 21.29C58.7674 21.29 57.6974 21 56.8708 20.42C56.0441 19.84 55.5374 19.0233 55.3508 17.97L57.4908 17.64C57.6241 18.2 57.9308 18.6433 58.4108 18.97C58.8974 19.29 59.5008 19.45 60.2208 19.45C60.8741 19.45 61.3841 19.3167 61.7508 19.05C62.1241 18.7833 62.3108 18.4167 62.3108 17.95C62.3108 17.6767 62.2441 17.4567 62.1108 17.29C61.9841 17.1167 61.7141 16.9533 61.3008 16.8C60.8874 16.6467 60.2574 16.4567 59.4108 16.23C58.4841 15.99 57.7474 15.7333 57.2008 15.46C56.6608 15.18 56.2741 14.8567 56.0408 14.49C55.8141 14.1167 55.7008 13.6667 55.7008 13.14C55.7008 12.4867 55.8741 11.9167 56.2208 11.43C56.5674 10.9433 57.0541 10.5667 57.6808 10.3C58.3141 10.0333 59.0541 9.9 59.9008 9.9C60.7274 9.9 61.4641 10.03 62.1108 10.29C62.7574 10.55 63.2808 10.92 63.6808 11.4C64.0808 11.8733 64.3208 12.43 64.4008 13.07L62.2608 13.46C62.1874 12.94 61.9441 12.53 61.5308 12.23C61.1174 11.93 60.5808 11.7667 59.9208 11.74C59.2874 11.7133 58.7741 11.82 58.3808 12.06C57.9874 12.2933 57.7908 12.6167 57.7908 13.03C57.7908 13.27 57.8641 13.4733 58.0108 13.64C58.1641 13.8067 58.4574 13.9667 58.8908 14.12C59.3241 14.2733 59.9641 14.4567 60.8108 14.67C61.7174 14.9033 62.4374 15.1633 62.9708 15.45C63.5041 15.73 63.8841 16.0667 64.1108 16.46C64.3441 16.8467 64.4608 17.3167 64.4608 17.87C64.4608 18.9367 64.0708 19.7733 63.2908 20.38C62.5174 20.9867 61.4474 21.29 60.0808 21.29ZM65.6634 21L65.6734 6.6H67.7934V15.4L72.0334 10.2H74.6934L70.2134 15.6L75.1534 21H72.3134L67.7934 15.8V21H65.6634ZM78.7517 21V8.57H73.9617V6.6H85.6317V8.57H80.8417V21H78.7517ZM89.3205 21.3C88.2405 21.3 87.3038 21.0567 86.5105 20.57C85.7171 20.0833 85.1038 19.4133 84.6705 18.56C84.2438 17.7 84.0305 16.71 84.0305 15.59C84.0305 14.4633 84.2505 13.4733 84.6905 12.62C85.1305 11.76 85.7471 11.0933 86.5405 10.62C87.3338 10.14 88.2605 9.9 89.3205 9.9C90.4005 9.9 91.3371 10.1433 92.1305 10.63C92.9238 11.1167 93.5371 11.7867 93.9705 12.64C94.4038 13.4933 94.6205 14.4767 94.6205 15.59C94.6205 16.7167 94.4005 17.71 93.9605 18.57C93.5271 19.4233 92.9138 20.0933 92.1205 20.58C91.3271 21.06 90.3938 21.3 89.3205 21.3ZM89.3205 19.33C90.3538 19.33 91.1238 18.9833 91.6305 18.29C92.1438 17.59 92.4005 16.69 92.4005 15.59C92.4005 14.4633 92.1405 13.5633 91.6205 12.89C91.1071 12.21 90.3405 11.87 89.3205 11.87C88.6205 11.87 88.0438 12.03 87.5905 12.35C87.1371 12.6633 86.8005 13.1 86.5805 13.66C86.3605 14.2133 86.2505 14.8567 86.2505 15.59C86.2505 16.7233 86.5105 17.63 87.0305 18.31C87.5505 18.99 88.3138 19.33 89.3205 19.33ZM103.398 21V15.69C103.398 15.27 103.361 14.84 103.288 14.4C103.221 13.9533 103.088 13.54 102.888 13.16C102.695 12.78 102.418 12.4733 102.058 12.24C101.705 12.0067 101.241 11.89 100.668 11.89C100.295 11.89 99.9413 11.9533 99.608 12.08C99.2746 12.2 98.9813 12.3967 98.728 12.67C98.4813 12.9433 98.2846 13.3033 98.138 13.75C97.998 14.1967 97.928 14.74 97.928 15.38L96.628 14.89C96.628 13.91 96.8113 13.0467 97.178 12.3C97.5446 11.5467 98.0713 10.96 98.758 10.54C99.4446 10.12 100.275 9.91 101.248 9.91C101.995 9.91 102.621 10.03 103.128 10.27C103.635 10.51 104.045 10.8267 104.358 11.22C104.678 11.6067 104.921 12.03 105.088 12.49C105.255 12.95 105.368 13.4 105.428 13.84C105.488 14.28 105.518 14.6667 105.518 15V21H103.398ZM95.808 21V10.2H97.678V13.32H97.928V21H95.808ZM107.323 8.43V6.4H109.413V8.43H107.323ZM107.323 21V10.2H109.413V21H107.323ZM116.036 21.3C114.929 21.3 113.989 21.0533 113.216 20.56C112.442 20.0667 111.849 19.39 111.436 18.53C111.029 17.67 110.822 16.6933 110.816 15.6C110.822 14.4867 111.036 13.5033 111.456 12.65C111.876 11.79 112.476 11.1167 113.256 10.63C114.036 10.1433 114.972 9.9 116.066 9.9C117.246 9.9 118.252 10.1933 119.086 10.78C119.926 11.3667 120.479 12.17 120.746 13.19L118.666 13.79C118.459 13.1833 118.119 12.7133 117.646 12.38C117.179 12.04 116.642 11.87 116.036 11.87C115.349 11.87 114.786 12.0333 114.346 12.36C113.906 12.68 113.579 13.12 113.366 13.68C113.152 14.24 113.042 14.88 113.036 15.6C113.042 16.7133 113.296 17.6133 113.796 18.3C114.302 18.9867 115.049 19.33 116.036 19.33C116.709 19.33 117.252 19.1767 117.666 18.87C118.086 18.5567 118.406 18.11 118.626 17.53L120.746 18.03C120.392 19.0833 119.809 19.8933 118.996 20.46C118.182 21.02 117.196 21.3 116.036 21.3Z" fill="#1678F2"/>
</svg>
