<svg width="25" height="24" viewBox="0 0 25 24" fill="none" xmlns="http://www.w3.org/2000/svg">
<path d="M7.15723 8.5H12.1572M7.15723 12H15.1572M9.84098 18H16.3572C18.0374 18 18.8775 18 19.5192 17.673C20.0837 17.3854 20.5426 16.9265 20.8302 16.362C21.1572 15.7202 21.1572 14.8802 21.1572 13.2V7.8C21.1572 6.11984 21.1572 5.27976 20.8302 4.63803C20.5426 4.07354 20.0837 3.6146 19.5192 3.32698C18.8775 3 18.0374 3 16.3572 3H7.95723C6.27707 3 5.43699 3 4.79526 3.32698C4.23077 3.6146 3.77183 4.07354 3.48421 4.63803C3.15723 5.27976 3.15723 6.11984 3.15723 7.8V20.3355C3.15723 20.8684 3.15723 21.1348 3.26646 21.2716C3.36145 21.3906 3.5055 21.4599 3.65777 21.4597C3.83285 21.4595 4.0409 21.2931 4.45698 20.9602L6.84244 19.0518C7.32974 18.662 7.5734 18.4671 7.84471 18.3285C8.08543 18.2055 8.34165 18.1156 8.60644 18.0613C8.9049 18 9.21692 18 9.84098 18Z" stroke="#6F6F6F" stroke-width="2" stroke-linecap="round" stroke-linejoin="round"/>
</svg>
