<svg width="18" height="19" viewBox="0 0 18 19" fill="none" xmlns="http://www.w3.org/2000/svg">
<path d="M7.04628 15.0283L7.48462 16.0142C7.61492 16.3076 7.82757 16.557 8.09678 16.732C8.366 16.9069 8.6802 17.0001 9.00128 17C9.32237 17.0001 9.63657 16.9069 9.90578 16.732C10.175 16.557 10.3876 16.3076 10.5179 16.0142L10.9563 15.0283C11.1123 14.6785 11.3748 14.3869 11.7063 14.195C12.0399 14.0026 12.4258 13.9206 12.8088 13.9608L13.8813 14.075C14.2005 14.1088 14.5227 14.0492 14.8088 13.9035C15.0949 13.7578 15.3325 13.5322 15.4929 13.2542C15.6536 12.9763 15.7301 12.6577 15.7132 12.3372C15.6964 12.0166 15.5869 11.7079 15.3979 11.4483L14.7629 10.5758C14.5368 10.2628 14.416 9.88611 14.4179 9.5C14.4179 9.11494 14.5398 8.73976 14.7663 8.42833L15.4013 7.55583C15.5902 7.29632 15.6997 6.98755 15.7166 6.66701C15.7334 6.34646 15.6569 6.02791 15.4963 5.75C15.3359 5.47193 15.0982 5.24637 14.8121 5.10067C14.5261 4.95497 14.2039 4.8954 13.8846 4.92917L12.8121 5.04333C12.4291 5.08356 12.0432 5.00159 11.7096 4.80917C11.3775 4.61619 11.1149 4.32302 10.9596 3.97167L10.5179 2.98583C10.3876 2.69238 10.175 2.44304 9.90578 2.26805C9.63657 2.09306 9.32237 1.99995 9.00128 2C8.6802 1.99995 8.366 2.09306 8.09678 2.26805C7.82757 2.44304 7.61492 2.69238 7.48462 2.98583L7.04628 3.97167C6.89098 4.32302 6.62844 4.61619 6.29628 4.80917C5.96269 5.00159 5.57678 5.08356 5.19378 5.04333L4.11795 4.92917C3.7987 4.8954 3.4765 4.95497 3.19043 5.10067C2.90437 5.24637 2.66671 5.47193 2.50628 5.75C2.34565 6.02791 2.26912 6.34646 2.28598 6.66701C2.30285 6.98755 2.41237 7.29632 2.60128 7.55583L3.23628 8.42833C3.46274 8.73976 3.58468 9.11494 3.58461 9.5C3.58468 9.88506 3.46274 10.2602 3.23628 10.5717L2.60128 11.4442C2.41237 11.7037 2.30285 12.0124 2.28598 12.333C2.26912 12.6535 2.34565 12.9721 2.50628 13.25C2.66687 13.5279 2.90455 13.7534 3.19058 13.899C3.47661 14.0447 3.79872 14.1044 4.11795 14.0708L5.19045 13.9567C5.57345 13.9164 5.95936 13.9984 6.29295 14.1908C6.62634 14.3833 6.89011 14.6765 7.04628 15.0283Z" stroke="#1678F2" stroke-width="2" stroke-linecap="round" stroke-linejoin="round"/>
<path d="M8.99994 11.75C10.2426 11.75 11.2499 10.7426 11.2499 9.5C11.2499 8.25736 10.2426 7.25 8.99994 7.25C7.7573 7.25 6.74994 8.25736 6.74994 9.5C6.74994 10.7426 7.7573 11.75 8.99994 11.75Z" stroke="#1678F2" stroke-width="2" stroke-linecap="round" stroke-linejoin="round"/>
</svg>
