<svg width="20" height="21" viewBox="0 0 20 21" fill="none" xmlns="http://www.w3.org/2000/svg">
<path d="M9.40229 3.3778C9.59436 2.98869 9.6904 2.79413 9.82077 2.73197C9.9342 2.67789 10.066 2.67789 10.1794 2.73197C10.3098 2.79413 10.4058 2.98869 10.5979 3.3778L12.4201 7.06944C12.4768 7.18432 12.5052 7.24176 12.5466 7.28635C12.5833 7.32584 12.6273 7.35783 12.6762 7.38056C12.7314 7.40623 12.7948 7.41549 12.9215 7.43402L16.9976 8.0298C17.4268 8.09253 17.6414 8.1239 17.7407 8.22874C17.8271 8.31995 17.8678 8.44529 17.8513 8.56985C17.8324 8.71302 17.6771 8.86436 17.3663 9.16702L14.418 12.0387C14.326 12.1282 14.2801 12.173 14.2504 12.2263C14.2242 12.2734 14.2073 12.3252 14.2008 12.3788C14.1935 12.4393 14.2043 12.5025 14.226 12.629L14.9217 16.6851C14.9951 17.1129 15.0318 17.3269 14.9628 17.4538C14.9028 17.5642 14.7962 17.6417 14.6726 17.6646C14.5306 17.6909 14.3385 17.5899 13.9543 17.3879L10.3104 15.4716C10.1969 15.4119 10.1401 15.382 10.0803 15.3703C10.0273 15.3599 9.97286 15.3599 9.91991 15.3703C9.8601 15.382 9.80333 15.4119 9.68979 15.4716L6.04585 17.3879C5.66168 17.5899 5.46959 17.6909 5.32756 17.6646C5.20398 17.6417 5.09735 17.5642 5.03736 17.4538C4.96841 17.3269 5.0051 17.1129 5.07848 16.6851L5.77415 12.629C5.79584 12.5025 5.80669 12.4393 5.79935 12.3788C5.79285 12.3252 5.77601 12.2734 5.74975 12.2263C5.7201 12.173 5.67414 12.1282 5.58224 12.0387L2.63388 9.16702C2.32313 8.86436 2.16776 8.71302 2.14885 8.56985C2.1324 8.44529 2.17304 8.31995 2.25946 8.22874C2.35878 8.1239 2.57339 8.09253 3.00262 8.0298L7.07867 7.43402C7.20543 7.41549 7.26881 7.40623 7.32401 7.38056C7.37288 7.35783 7.41688 7.32584 7.45357 7.28635C7.495 7.24176 7.52336 7.18432 7.58006 7.06944L9.40229 3.3778Z" stroke="#6F6F6F" stroke-width="1.66667" stroke-linecap="round" stroke-linejoin="round"/>
</svg>
