<svg width="30" height="31" viewBox="0 0 30 31" fill="none" xmlns="http://www.w3.org/2000/svg">
<rect y="0.5" width="30" height="30" rx="15" fill="#FADBE1"/>
<path d="M17.6667 11.5007V10.9673C17.6667 10.2206 17.6667 9.84721 17.5213 9.562C17.3935 9.31111 17.1895 9.10714 16.9387 8.97931C16.6534 8.83398 16.2801 8.83398 15.5333 8.83398H14.4667C13.7199 8.83398 13.3466 8.83398 13.0613 8.97931C12.8105 9.10714 12.6065 9.31111 12.4787 9.562C12.3333 9.84721 12.3333 10.2206 12.3333 10.9673V11.5007M13.6667 15.1673V18.5007M16.3333 15.1673V18.5007M9 11.5007H21M19.6667 11.5007V18.9673C19.6667 20.0874 19.6667 20.6475 19.4487 21.0753C19.2569 21.4516 18.951 21.7576 18.5746 21.9493C18.1468 22.1673 17.5868 22.1673 16.4667 22.1673H13.5333C12.4132 22.1673 11.8532 22.1673 11.4254 21.9493C11.049 21.7576 10.7431 21.4516 10.5513 21.0753C10.3333 20.6475 10.3333 20.0874 10.3333 18.9673V11.5007" stroke="#DF1C41" stroke-width="1.33333" stroke-linecap="round" stroke-linejoin="round"/>
</svg>
